# xmcd
#
# Track frame offsets:
#	150
#	16808
#	36177
#	52217
#	70810
#	92869
#	115704
#	134638
#	155984
#	171403
#
# Disc length: 2448 seconds
#
# Revision: 12
# Processed by: cddbd v1.5.2PL0 Copyright (c) Steve Scherf et al.
# Submitted via: Jack! The Knife 20 Magnifico
#
DISCID=91098e0a
DTITLE=Baron Rojo - Volumen Brutal
DYEAR=1982
DGENRE=Metal
TTITLE0=Incomunicación
TTITLE1=Los Rockeros Van Al Infierno
TTITLE2=Dame La Oportunidad
TTITLE3=Son Como Hormigas
TTITLE4=Las Flores Del Mal
TTITLE5=Resistiré
TTITLE6=Satánico Plan (Volumen Total)
TTITLE7=Concierto Para Ellos
TTITLE8=Hermano Del Rock and Roll
TTITLE9=El Barón Vuela Sobre Inglaterra
EXTD=Chapa Disco and Baron Rojo
EXTT0=de Castro, de Castro
EXTT1=Campuzano, Cortés
EXTT2=de Castro, de Castro
EXTT3=Campuzano, Cortés, de Castro
EXTT4=Carlo de Castro
EXTT5=Campuzano, Cortés, de Castro, de Castro
EXTT6=de Castro, de Castro, Campuzano
EXTT7=Campuzano, Cortés, de Castro
EXTT8=Armando de Castro
EXTT9=de Castro, de Castro, Campuzano, Calabria
PLAYORDER=
